<svg xmlns="http://www.w3.org/2000/svg" viewBox="0 0 800 600" width="800" height="600">
  <!-- Background shapes -->
  <defs>
    <linearGradient id="grad1" x1="0%" y1="0%" x2="100%" y2="100%">
      <stop offset="0%" stop-color="#f0f4ff" />
      <stop offset="100%" stop-color="#e0e7ff" />
    </linearGradient>
    <linearGradient id="grad2" x1="0%" y1="0%" x2="100%" y2="0%">
      <stop offset="0%" stop-color="#4338ca" />
      <stop offset="100%" stop-color="#6366f1" />
    </linearGradient>
  </defs>
  
  <!-- Background -->
  <rect x="0" y="0" width="800" height="600" fill="url(#grad1)" rx="20" ry="20" />
  
  <!-- Dashboard UI -->
  <rect x="50" y="80" width="700" height="440" rx="10" ry="10" fill="white" stroke="#e5e7eb" stroke-width="2" />
  
  <!-- Header -->
  <rect x="50" y="80" width="700" height="60" rx="10" ry="10" fill="url(#grad2)" />
  <circle cx="85" cy="110" r="15" fill="white" fill-opacity="0.3" />
  <rect x="115" y="100" width="100" height="20" rx="5" ry="5" fill="white" fill-opacity="0.3" />
  <rect x="550" y="100" width="80" height="20" rx="5" ry="5" fill="white" fill-opacity="0.3" />
  <rect x="650" y="100" width="80" height="20" rx="5" ry="5" fill="white" fill-opacity="0.3" />
  
  <!-- Sidebar -->
  <rect x="50" y="140" width="180" height="380" fill="#f9fafb" />
  
  <!-- Sidebar menu items -->
  <rect x="70" y="170" width="140" height="40" rx="5" ry="5" fill="#e0e7ff" />
  <rect x="80" y="185" width="20" height="10" rx="2" ry="2" fill="#4f46e5" />
  <rect x="110" y="185" width="80" height="10" rx="2" ry="2" fill="#4f46e5" />
  
  <rect x="70" y="230" width="140" height="30" rx="5" ry="5" fill="white" />
  <rect x="80" y="240" width="20" height="10" rx="2" ry="2" fill="#9ca3af" />
  <rect x="110" y="240" width="80" height="10" rx="2" ry="2" fill="#9ca3af" />
  
  <rect x="70" y="280" width="140" height="30" rx="5" ry="5" fill="white" />
  <rect x="80" y="290" width="20" height="10" rx="2" ry="2" fill="#9ca3af" />
  <rect x="110" y="290" width="80" height="10" rx="2" ry="2" fill="#9ca3af" />
  
  <rect x="70" y="330" width="140" height="30" rx="5" ry="5" fill="white" />
  <rect x="80" y="340" width="20" height="10" rx="2" ry="2" fill="#9ca3af" />
  <rect x="110" y="340" width="80" height="10" rx="2" ry="2" fill="#9ca3af" />
  
  <!-- Content area -->
  <rect x="260" y="170" width="460" height="60" rx="5" ry="5" fill="#f9fafb" />
  <rect x="280" y="185" width="200" height="15" rx="2" ry="2" fill="#374151" />
  <rect x="280" y="210" width="150" height="10" rx="2" ry="2" fill="#9ca3af" />
  <rect x="600" y="185" width="100" height="30" rx="5" ry="5" fill="#4f46e5" />
  <rect x="620" y="195" width="60" height="10" rx="2" ry="2" fill="white" />
  
  <!-- Job cards -->
  <rect x="260" y="250" width="220" height="120" rx="5" ry="5" fill="white" stroke="#e5e7eb" stroke-width="1" />
  <circle cx="290" cy="280" r="20" fill="#f3f4f6" />
  <rect x="325" y="270" width="120" height="12" rx="2" ry="2" fill="#1f2937" />
  <rect x="325" y="290" width="80" height="8" rx="2" ry="2" fill="#9ca3af" />
  <rect x="280" y="320" width="180" height="30" rx="5" ry="5" fill="#f9fafb" />
  <rect x="290" y="330" width="60" height="10" rx="2" ry="2" fill="#4f46e5" />
  <rect x="365" y="330" width="60" height="10" rx="2" ry="2" fill="#374151" />
  
  <rect x="500" y="250" width="220" height="120" rx="5" ry="5" fill="white" stroke="#e5e7eb" stroke-width="1" />
  <circle cx="530" cy="280" r="20" fill="#f3f4f6" />
  <rect x="565" y="270" width="120" height="12" rx="2" ry="2" fill="#1f2937" />
  <rect x="565" y="290" width="80" height="8" rx="2" ry="2" fill="#9ca3af" />
  <rect x="520" y="320" width="180" height="30" rx="5" ry="5" fill="#f9fafb" />
  <rect x="530" y="330" width="60" height="10" rx="2" ry="2" fill="#4f46e5" />
  <rect x="605" y="330" width="60" height="10" rx="2" ry="2" fill="#374151" />
  
  <rect x="260" y="390" width="220" height="120" rx="5" ry="5" fill="white" stroke="#e5e7eb" stroke-width="1" />
  <circle cx="290" cy="420" r="20" fill="#f3f4f6" />
  <rect x="325" y="410" width="120" height="12" rx="2" ry="2" fill="#1f2937" />
  <rect x="325" y="430" width="80" height="8" rx="2" ry="2" fill="#9ca3af" />
  <rect x="280" y="460" width="180" height="30" rx="5" ry="5" fill="#f9fafb" />
  <rect x="290" y="470" width="60" height="10" rx="2" ry="2" fill="#4f46e5" />
  <rect x="365" y="470" width="60" height="10" rx="2" ry="2" fill="#374151" />
  
  <rect x="500" y="390" width="220" height="120" rx="5" ry="5" fill="white" stroke="#e5e7eb" stroke-width="1" />
  <circle cx="530" cy="420" r="20" fill="#f3f4f6" />
  <rect x="565" y="410" width="120" height="12" rx="2" ry="2" fill="#1f2937" />
  <rect x="565" y="430" width="80" height="8" rx="2" ry="2" fill="#9ca3af" />
  <rect x="520" y="460" width="180" height="30" rx="5" ry="5" fill="#f9fafb" />
  <rect x="530" y="470" width="60" height="10" rx="2" ry="2" fill="#4f46e5" />
  <rect x="605" y="470" width="60" height="10" rx="2" ry="2" fill="#374151" />
  
  <!-- Decorative elements -->
  <circle cx="730" cy="140" r="40" fill="#4f46e5" fill-opacity="0.1" />
  <circle cx="100" cy="520" r="30" fill="#4f46e5" fill-opacity="0.1" />
  <circle cx="750" cy="480" r="20" fill="#4f46e5" fill-opacity="0.1" />
</svg> 